PathFileType	4	(X/Y/Z)	S00_P01_T02_Participants1-2_P1_0-100.trc
DataRate	CameraRate	NumFrames	NumMarkers	Units	OrigDataRate	OrigDataStartFrame	OrigNumFrames
60	60	5	21	m	60	37	100
Frame#	Time	RHip			RKnee			RAnkle			RBigToe			RSmallToe			RHeel			LHip			LKnee			LAnkle			LBigToe			LSmallToe			LHeel			Neck			Head			Nose			RShoulder			RElbow			RWrist			LShoulder			LElbow			LWrist		
		X1	Y1	Z1	X2	Y2	Z2	X3	Y3	Z3	X4	Y4	Z4	X5	Y5	Z5	X6	Y6	Z6	X7	Y7	Z7	X8	Y8	Z8	X9	Y9	Z9	X10	Y10	Z10	X11	Y11	Z11	X12	Y12	Z12	X13	Y13	Z13	X14	Y14	Z14	X15	Y15	Z15	X16	Y16	Z16	X17	Y17	Z17	X18	Y18	Z18	X19	Y19	Z19	X20	Y20	Z20	X21	Y21	Z21
38	0.6333333333333333	-1.0510454038087402	0.9498431405569558	-0.9743256476721854	-0.8758648475077255	0.9392076796302522	-0.7312337201938851	-0.8763945072747629	0.913262615159635	-0.9651135718865403	-0.7781913064419822	0.9078574916094313	-1.0411048975761892	-0.8009038801945794	0.887394416471866	-1.0356760223388084	-0.8974912218433511	0.9191116214603527	-1.0080363048009446	-1.0515943391952491	0.9504570535475602	-1.118506611653871	-0.8780286972573107	0.9416847770944234	-1.3567021460535826	-0.8897356264193192	0.9196281542252626	-1.123830885315147	-0.789225885972433	0.9114152918680275	-1.0578564343045014	-0.8129579006450007	0.8916229361690793	-1.0617373891645259	-0.9115517011901344	0.926271717785938	-1.0792497536366146	-1.0727544534141678	1.359852702635428	-1.045751492203793	-1.0380260869485147	1.517323684375164	-1.0581997831614034	-0.9874787951669665	1.423017944332019	-1.0443651383955257	-1.0966564206993927	1.303260396262004	-0.9259679445458764	-1.0403570593137994	1.1287016824372529	-0.8365934812969857	-0.8841485604591615	1.0485086695330303	-0.9184128557031686	-1.0808856626408345	1.3078461849354563	-1.178241644210743	-1.044413212311093	1.1354741915558988	-1.2645900140684954	-0.9057838005189297	1.0725249042170597	-1.1370893140987244
39	0.65	-1.0510399162523647	0.9463916496327935	-0.9743310081876445	-0.875858066056648	0.9357569728392369	-0.7312454029359532	-0.875021293090602	0.9092059625633606	-0.9650637294324347	-0.7763964808496324	0.9037000218942453	-1.040489764547146	-0.799121977879904	0.8832312081214251	-1.035136220068105	-0.8958923232018862	0.914933238795605	-1.0081132872743055	-1.0515895353260047	0.9470058925861898	-1.118511787903083	-0.8780258992019092	0.9382350068022324	-1.356710399616529	-0.8897314642718949	0.9161777669550457	-1.1238391893663489	-0.7892215073286112	0.9079651414715987	-1.057867239742558	-0.8129535067220447	0.8881728787698212	-1.0617476267069863	-0.9115472104854674	0.9228211158882299	-1.0792578189688784	-1.0727474230529381	1.3563976002372575	-1.0457612622275838	-1.0380094684733392	1.5138790840236003	-1.058192127850007	-0.9874718331389363	1.4195627148468786	-1.0443767484125954	-1.0966380134405436	1.299815377969192	-0.9259565033784979	-1.0406018355550637	1.1263283383535967	-0.8344953583163014	-0.8856833030903293	1.0440493054006978	-0.9167113991516757	-1.0808794326777884	1.3043920220041239	-1.178252145590937	-1.0444085520879804	1.1320220315171508	-1.2645983188059542	-0.9055573457841856	1.0670749207605796	-1.1385599833624058
40	0.6666666666666666	-1.051034315219436	0.9428658607650725	-0.9743364719034155	-0.8758511396668647	0.9322319817906922	-0.7312573560206675	-0.8736182208163854	0.9050632561898685	-0.9650034894907344	-0.7745657747505722	0.8994560604581071	-1.0398494453887526	-0.7973040528936666	0.8789811927131238	-1.0345729029697726	-0.8942578784463714	0.9106660557439831	-1.0081809875703283	-1.0515846333041206	0.9434804400892842	-1.1185170486575655	-0.8780230424778428	0.9347109716993429	-1.3567187921861037	-0.8897272134265595	0.9126531028815366	-1.123847657030423	-0.7892170331373478	0.9044407183915708	-1.0578782749310678	-0.8129490167101885	0.8846485508547774	-1.0617580806989935	-0.9115426246297489	0.9192962329573244	-1.0792660452018048	-1.0727402689046155	1.3528681225537613	-1.0457711726133625	-1.0379924866874874	1.510360311783378	-1.0581842642576824	-0.9874647500017023	1.416033106346193	-1.0443885453699586	-1.079960256241024	1.2997985056440244	-0.9138276346772118	-1.0408560962148659	1.123929198463762	-0.832363435502684	-0.8872762491065017	1.0395036204260109	-0.9149320445422775	-1.0808730944108256	1.3008635029944713	-1.178262789644093	-1.0444038064835526	1.1284955574716273	-1.2646067370119325	-0.9053479889694096	1.0615190871259346	-1.1400816102190283
41	0.6833333333333333	-1.0510286309090275	0.9392847133252666	-0.9743420090590258	-0.8758441055017386	0.9286516413944137	-0.7312695162801641	-0.8721928652042262	0.9008568437504969	-0.9649326595562295	-0.7727092463413752	0.8951485993827103	-1.039186740466	-0.7954600710234165	0.8746673844114089	-1.0339884575901717	-0.8925966680825289	0.9063330863730631	-1.0082384310194423	-1.051579659596629	0.9398996335889679	-1.1185223645030469	-0.8780201423623085	0.9311316015296568	-1.356727276861242	-0.8897228966312083	0.9090730951927873	-1.1238562421941471	-0.7892124872427891	0.9008609544632852	-1.0578894805406012	-0.8129444545266458	0.881068883757473	-1.0617686948862057	-0.9115379682050543	0.9157160033773178	-1.0792743876485877	-1.072733030693981	1.3492832288179955	-1.0457811667592465	-1.037975232441906	1.5067862681107111	-1.058176232638446	-0.9874575851676295	1.412448078710329	-1.0444004628307233	-1.0799528305683228	1.2962137256651685	-0.9138350841578766	-1.041118678380529	1.1215184849207605	-0.8302101164186607	-0.8889200924663653	1.034897899451096	-0.9130819727763816	-1.0808666830869424	1.2972795819304925	-1.1782735151148669	-1.0443990016780422	1.1249137123844473	-1.2646152203369914	-0.9051581099241913	1.0558882058307002	-1.1416468539037319
42	0.7	-1.0510228938781443	0.9356674406546048	-0.9743475897157128	-0.875837001276619	0.925035180500863	-0.7312818191465741	-0.8707529283026931	0.8966093928925687	-0.9648512515654666	-0.7708370527272066	0.8908009223969507	-1.0385047605658548	-0.7936001048568553	0.8703130936511613	-1.0333855732025135	-0.890917637588407	0.9019576781076861	-1.0082848708605046	-1.0515746409565092	0.9362827045743449	-1.1185277061833603	-0.8780172143268368	0.9275161199447326	-1.3567358068880992	-0.889718536959807	0.9054569710089835	-1.1238648983752966	-0.7892078938816941	0.8972450754547585	-1.0579007963891944	-0.8129398444870944	0.8774531027326502	-1.061779412234018	-0.9115332661342602	0.9120996554742659	-1.0792828012213624	-1.0727257481382553	1.3456621725334295	-1.0457911887659708	-1.0379577981184664	1.5031761473233054	-1.0581680748606215	-0.9874503780099283	1.4088268861222095	-1.0444124347488815	-1.0799453535852859	1.2925927856358865	-0.91384256343821	-1.0413883053190884	1.1191100728648966	-0.8280477615892889	-0.8906068452503486	1.0302587021721918	-0.9111694230612365	-1.0808602339149345	1.2936595070482246	-1.1782842616784717	-1.0443941638245178	1.1212957332979674	-1.2646237211561575	-0.9049896357993703	1.050213317175366	-1.1432478162341602
